<svg xmlns="http://www.w3.org/2000/svg" viewBox="0 0 500.95 480.74"><defs><style>.cls-1{fill:#fbb03b;}.cls-2,.cls-4{fill:#fff;}.cls-3{stroke:#231f20;stroke-linecap:round;}.cls-3,.cls-4{stroke-miterlimit:10;}.cls-4{stroke:#000;}</style></defs><title>Fichier 1</title><g id="Calque_2" data-name="Calque 2"><g id="Calque_1-2" data-name="Calque 1"><path class="cls-1" d="M317.17,80.8C185.46,19.21,195.8,206.14,223.92,245.68c23.59,33.19,106.87,10.75,183.22-48.06s88-124.5,93.25-164.88C510.3-43.34,384.94,112.5,317.17,80.8Z"/><path class="cls-1" d="M175.51,91.22C314.06,47.1,279.74,231.14,246.76,266.73c-27.67,29.87-107.37-3.1-175.51-71.24S0,60.69,0,20C0-56.76,104.23,113.93,175.51,91.22Z"/><ellipse class="cls-1" cx="241.47" cy="221.74" rx="151.5" ry="201.5"/><path class="cls-2" d="M242.42,154.12c16.39,0,29.49-40.61,29.55-3,0,8.07-11,26.58-27.39,26.58s-31.93-18.51-32-26.58C212.57,111.44,226,154.12,242.42,154.12Z"/><ellipse class="cls-2" cx="197.97" cy="93.74" rx="20" ry="30.5"/><ellipse class="cls-3" cx="199.47" cy="108.24" rx="11" ry="10.5"/><ellipse class="cls-2" cx="291.97" cy="97.74" rx="20" ry="30.5"/><ellipse class="cls-3" cx="293.47" cy="112.24" rx="11" ry="10.5"/><path class="cls-4" d="M363.61,214.7,302.8,260.93,242,214.71l-60.79,46.21-60.8-46.22L50.47,267.89l.08,6.36c.82,62.55,20.36,115.11,56.51,152,34.11,34.82,82,54,134.94,54s100.85-19.17,135-54c36.15-36.9,55.69-89.46,56.51-152l.08-6.36Z"/></g></g></svg>